{
    "asset" : {
        "generator" : "Khronos glTF Blender I/O v1.8.2",
        "version" : "2.0"
    },
    "scene" : 0,
    "scenes" : [
        {
            "name" : "Scene",
            "nodes" : [
                0
            ]
        }
    ],
    "nodes" : [
        {
            "mesh" : 0,
            "name" : "Navmesh"
        }
    ],
    "meshes" : [
        {
            "name" : "Navmesh",
            "primitives" : [
                {
                    "attributes" : {
                        "POSITION" : 0,
                        "NORMAL" : 1
                    },
                    "indices" : 2
                }
            ]
        }
    ],
    "accessors" : [
        {
            "bufferView" : 0,
            "componentType" : 5126,
            "count" : 29481,
            "max" : [
                85.18440246582031,
                20.564720153808594,
                182.83082580566406
            ],
            "min" : [
                -192.9156036376953,
                -9.635279655456543,
                -95.26918029785156
            ],
            "type" : "VEC3"
        },
        {
            "bufferView" : 1,
            "componentType" : 5126,
            "count" : 29481,
            "type" : "VEC3"
        },
        {
            "bufferView" : 2,
            "componentType" : 5123,
            "count" : 29814,
            "type" : "SCALAR"
        }
    ],
    "bufferViews" : [
        {
            "buffer" : 0,
            "byteLength" : 353772,
            "byteOffset" : 0
        },
        {
            "buffer" : 0,
            "byteLength" : 353772,
            "byteOffset" : 353772
        },
        {
            "buffer" : 0,
            "byteLength" : 59628,
            "byteOffset" : 707544
        }
    ],
    "buffers" : [
        {
            "byteLength" : 767172,
            "uri" : "data:application/octet-stream;base64,"
        }
    ]
}
