{
	"asset":{
		"generator":"Khronos glTF Blender I/O v3.5.30",
		"version":"2.0"
	},
	"scene":0,
	"scenes":[
		{
			"name":"Scene",
			"nodes":[
				0
			]
		}
	],
	"nodes":[
		{
			"mesh":0,
			"name":"Circle.040",
			"translation":[
				7.143543243408203,
				0.5019936561584473,
				-6.9381561279296875
			]
		}
	],
	"meshes":[
		{
			"name":"Circle.029",
			"primitives":[
				{
					"attributes":{
						"COLOR_0":0,
						"POSITION":1,
						"TEXCOORD_0":2,
						"TEXCOORD_1":3,
						"TEXCOORD_2":4,
						"TEXCOORD_3":5,
						"NORMAL":6
					},
					"indices":7
				}
			]
		}
	],
	"accessors":[
		{
			"bufferView":0,
			"componentType":5123,
			"count":2954,
			"normalized":true,
			"type":"VEC4"
		},
		{
			"bufferView":1,
			"componentType":5126,
			"count":2954,
			"max":[
				78.00672149658203,
				21.177709579467773,
				26.215171813964844
			],
			"min":[
				-13.053321838378906,
				-1.7222442626953125,
				-81.0243148803711
			],
			"type":"VEC3"
		},
		{
			"bufferView":2,
			"componentType":5126,
			"count":2954,
			"type":"VEC2"
		},
		{
			"bufferView":3,
			"componentType":5126,
			"count":2954,
			"type":"VEC2"
		},
		{
			"bufferView":4,
			"componentType":5126,
			"count":2954,
			"type":"VEC2"
		},
		{
			"bufferView":5,
			"componentType":5126,
			"count":2954,
			"type":"VEC2"
		},
		{
			"bufferView":6,
			"componentType":5126,
			"count":2954,
			"type":"VEC3"
		},
		{
			"bufferView":7,
			"componentType":5123,
			"count":7017,
			"type":"SCALAR"
		}
	],
	"bufferViews":[
		{
			"buffer":0,
			"byteLength":23632,
			"byteOffset":0,
			"target":34962
		},
		{
			"buffer":0,
			"byteLength":35448,
			"byteOffset":23632,
			"target":34962
		},
		{
			"buffer":0,
			"byteLength":23632,
			"byteOffset":59080,
			"target":34962
		},
		{
			"buffer":0,
			"byteLength":23632,
			"byteOffset":82712,
			"target":34962
		},
		{
			"buffer":0,
			"byteLength":23632,
			"byteOffset":106344,
			"target":34962
		},
		{
			"buffer":0,
			"byteLength":23632,
			"byteOffset":129976,
			"target":34962
		},
		{
			"buffer":0,
			"byteLength":35448,
			"byteOffset":153608,
			"target":34962
		},
		{
			"buffer":0,
			"byteLength":14034,
			"byteOffset":189056,
			"target":34963
		}
	],
	"buffers":[
		{
			"byteLength":203092,
			"uri":"data:application/octet-stream;base64,"
		}
	]
}
